<svg width="30" height="31" viewBox="0 0 30 31" fill="none" xmlns="http://www.w3.org/2000/svg">
<g id="Cross">
<g id="Group">
<path id="Vector" d="M1.94435 30.0248C1.44678 30.0248 0.948849 29.8344 0.570184 29.4554C-0.190061 28.6955 -0.190061 27.4669 0.570184 26.707L26.6822 0.594722C27.4421 -0.165159 28.6707 -0.165159 29.4305 0.594722C30.1907 1.3546 30.1907 2.58317 29.4305 3.34305L3.31851 29.4554C3.13837 29.6363 2.9242 29.7797 2.68835 29.8774C2.45251 29.9752 2.19964 30.0253 1.94435 30.0248Z" fill="white"/>
<path id="Vector_2" d="M28.0564 30.0248C27.5588 30.0248 27.0612 29.8344 26.6822 29.4554L0.570184 3.34305C-0.190061 2.58317 -0.190061 1.35451 0.570184 0.594722C1.33007 -0.165159 2.55827 -0.165159 3.31851 0.594722L29.4305 26.707C30.1907 27.4669 30.1907 28.6956 29.4305 29.4554C29.0515 29.8362 28.5539 30.0248 28.0564 30.0248Z" fill="white"/>
</g>
</g>
</svg>
