<svg width="23" height="20" viewBox="0 0 23 20" fill="none" xmlns="http://www.w3.org/2000/svg">
<g id="Menu">
<path id="Vector" fill-rule="evenodd" clip-rule="evenodd" d="M23 1.66667C23 1.22464 22.8244 0.800716 22.5118 0.488156C22.1993 0.175595 21.7754 0 21.3333 0H1.66667C1.22464 0 0.800716 0.175595 0.488156 0.488156C0.175595 0.800716 0 1.22464 0 1.66667C0 2.10869 0.175595 2.53262 0.488156 2.84518C0.800716 3.15774 1.22464 3.33333 1.66667 3.33333L21.3333 3.33333C21.7754 3.33333 22.1993 3.15774 22.5118 2.84518C22.8244 2.53262 23 2.10869 23 1.66667ZM23 10C23 9.55797 22.8244 9.13405 22.5118 8.82149C22.1993 8.50893 21.7754 8.33333 21.3333 8.33333H8.33333C7.89131 8.33333 7.46738 8.50893 7.15482 8.82149C6.84226 9.13405 6.66667 9.55797 6.66667 10C6.66667 10.442 6.84226 10.8659 7.15482 11.1785C7.46738 11.4911 7.89131 11.6667 8.33333 11.6667H21.3333C21.7754 11.6667 22.1993 11.4911 22.5118 11.1785C22.8244 10.8659 23 10.442 23 10ZM21.3333 16.6667C21.7754 16.6667 22.1993 16.8423 22.5118 17.1548C22.8244 17.4674 23 17.8913 23 18.3333C23 18.7754 22.8244 19.1993 22.5118 19.5118C22.1993 19.8244 21.7754 20 21.3333 20H1.66667C1.22464 20 0.800716 19.8244 0.488156 19.5118C0.175595 19.1993 0 18.7754 0 18.3333C0 17.8913 0.175595 17.4674 0.488156 17.1548C0.800716 16.8423 1.22464 16.6667 1.66667 16.6667H21.3333Z" fill="white"/>
</g>
</svg>
